<?xml version="1.0" encoding="utf-8"?>
<!-- Generator: Adobe Illustrator 19.0.0, SVG Export Plug-In . SVG Version: 6.00 Build 0)  -->
<svg version="1.1" id="Layer_1" xmlns="http://www.w3.org/2000/svg" xmlns:xlink="http://www.w3.org/1999/xlink" x="0px" y="0px"
	 viewBox="-447 249 64 64" style="enable-background:new -447 249 64 64;" xml:space="preserve">
<style type="text/css">
	.st0{fill:#212529;}
</style>
<title>12-business</title>
<g>
	<path class="st0" d="M-399,307c-0.6,0-1,0.4-1,1c0,1.7-1.3,3-3,3h-38c-1.7,0-3-1.3-3-3v-43h11c1.7,0,3-1.3,3-3v-11h27
		c1.3,0,2.5,0.9,2.9,2.2c-5.4-1-10.7,2.5-11.7,7.9c-1,5.4,2.5,10.7,7.9,11.7c1.3,0.2,2.6,0.2,3.9,0v6.2h-3c-0.6,0-1,0.4-1,1v20
		c0,0.6,0.4,1,1,1h6c0.6,0,1-0.4,1-1v-20c0-0.6-0.4-1-1-1h-1v-6.8c5.1-2.2,7.4-8.1,5.2-13.2c-1-2.3-2.9-4.2-5.2-5.2
		c-0.1-2.7-2.3-4.8-5-4.8h-28c-0.3,0-0.5,0.1-0.7,0.3l-14,14c-0.2,0.2-0.3,0.4-0.3,0.7v44c0,2.8,2.2,5,5,5h38c2.8,0,5-2.2,5-5
		C-398,307.4-398.4,307-399,307z M-398,299h-4v-18h4V299z M-394,263c0,4.4-3.6,8-8,8s-8-3.6-8-8s3.6-8,8-8S-394,258.6-394,263z
		 M-433,263h-9.6l10.6-10.6v9.6C-432,262.6-432.4,263-433,263z"/>
	<path class="st0" d="M-415,301h6c0.6,0,1-0.4,1-1v-14c0-0.6-0.4-1-1-1h-6c-0.6,0-1,0.4-1,1v14C-416,300.6-415.6,301-415,301z
		 M-414,287h4v12h-4V287z"/>
	<path class="st0" d="M-385,273h-6c-0.6,0-1,0.4-1,1v26c0,0.6,0.4,1,1,1h6c0.6,0,1-0.4,1-1v-26C-384,273.4-384.4,273-385,273z
		 M-386,299h-4v-24h4V299z"/>
	<path class="st0" d="M-385,303h-30c-0.6,0-1,0.4-1,1s0.4,1,1,1h30c0.6,0,1-0.4,1-1S-384.4,303-385,303z"/>
	<path class="st0" d="M-403,257v1c-1.7,0-3,1.3-3,3s1.3,3,3,3h2c0.6,0,1,0.4,1,1s-0.4,1-1,1h-2c-0.6,0-1-0.4-1-1s-0.4-1-1-1
		c-0.6,0-1,0.4-1,1c0,1.7,1.3,3,3,3v1c0,0.6,0.4,1,1,1c0.6,0,1-0.4,1-1v-1c1.7,0,3-1.3,3-3s-1.3-3-3-3h-2c-0.6,0-1-0.4-1-1
		s0.4-1,1-1h2c0.6,0,1,0.4,1,1s0.4,1,1,1c0.6,0,1-0.4,1-1c0-1.7-1.3-3-3-3v-1c0-0.6-0.4-1-1-1C-402.6,256-403,256.4-403,257z"/>
	<path class="st0" d="M-419,286v-8.6l5-5v2.6c0,0.6,0.4,1,1,1c0.6,0,1-0.4,1-1v-5c0-0.1,0-0.2-0.1-0.4v-0.1c0-0.1-0.1-0.1-0.1-0.2
		l-0.1-0.1c-0.1-0.1-0.2-0.1-0.3-0.2l0,0c-0.1-0.1-0.3-0.1-0.5-0.1h-5c-0.6,0-1,0.4-1,1s0.4,1,1,1h2.6l-5.3,5.3
		c-0.2,0.2-0.3,0.4-0.3,0.7v8.6l-10.7,10.7c-0.4,0.4-0.5,1-0.1,1.4c0.4,0.4,1,0.5,1.4,0.1c0,0,0.1-0.1,0.1-0.1l11-11
		C-419.1,286.5-419,286.3-419,286z"/>
	<path class="st0" d="M-439,271h13c0.6,0,1-0.4,1-1s-0.4-1-1-1h-13c-0.6,0-1,0.4-1,1S-439.6,271-439,271z"/>
	<path class="st0" d="M-439,276h13c0.6,0,1-0.4,1-1s-0.4-1-1-1h-13c-0.6,0-1,0.4-1,1S-439.6,276-439,276z"/>
	<path class="st0" d="M-439,281h13c0.6,0,1-0.4,1-1s-0.4-1-1-1h-13c-0.6,0-1,0.4-1,1S-439.6,281-439,281z"/>
	<path class="st0" d="M-430,285c0-0.6-0.4-1-1-1h-8c-0.6,0-1,0.4-1,1s0.4,1,1,1h8C-430.4,286-430,285.6-430,285z"/>
	<path class="st0" d="M-441,303c-0.6,0-1,0.4-1,1v2c0,1.7,1.3,3,3,3h2c0.6,0,1-0.4,1-1s-0.4-1-1-1h-2c-0.6,0-1-0.4-1-1v-2
		C-440,303.4-440.4,303-441,303z"/>
	<path class="st0" d="M-433,309h2c0.6,0,1-0.4,1-1s-0.4-1-1-1h-2c-0.6,0-1,0.4-1,1S-433.6,309-433,309z"/>
</g>
</svg>
