<?xml version="1.0" encoding="utf-8"?>
<!-- Generator: Adobe Illustrator 19.0.0, SVG Export Plug-In . SVG Version: 6.00 Build 0)  -->
<svg version="1.1" id="Layer_1" xmlns="http://www.w3.org/2000/svg" xmlns:xlink="http://www.w3.org/1999/xlink" x="0px" y="0px"
	 viewBox="-447 241 64 62" style="enable-background:new -447 241 64 62;" xml:space="preserve">
<style type="text/css">
	.st0{fill:#212529;}
</style>
<g>
	<rect x="-431" y="246.5" class="st0" width="2" height="2"/>
	<rect x="-427" y="246.5" class="st0" width="2" height="2"/>
	<rect x="-423" y="246.5" class="st0" width="2" height="2"/>
	<path class="st0" d="M-439,286.5h19v-2h-19c-2.2,0-4-1.8-4-4v-22h36v8h2v-9c0-0.6-0.4-1-1-1h-32v-3h36v13h2v-14c0-0.6-0.4-1-1-1
		h-32v-6c0-0.6,0.4-1,1-1h11.3c0.2,0,0.4,0.1,0.6,0.2l4.5,3.6c0.2,0.1,0.4,0.2,0.6,0.2h18v21h2v-22c0-0.6-0.4-1-1-1h-18.6l-4.2-3.3
		c-0.5-0.4-1.2-0.7-1.9-0.7H-432c-1.7,0-3,1.3-3,3v6h-4c-0.6,0-1,0.4-1,1v4h-4c-0.6,0-1,0.4-1,1v23
		C-445,283.8-442.3,286.5-439,286.5z"/>
	<path class="st0" d="M-393.9,288.2c3.7-6.2,1.8-14.2-4.4-17.9s-14.2-1.8-17.9,4.4s-1.8,14.2,4.4,17.9c4.2,2.5,9.4,2.5,13.5,0l8,8
		c1.2,1.2,3.2,1.2,4.4,0c0.6-0.6,0.9-1.4,0.9-2.2c0-0.8-0.3-1.6-0.9-2.2L-393.9,288.2z M-397.4,289.5c-0.2,0.2-0.4,0.3-0.5,0.5
		c-0.1,0.1-0.3,0.2-0.4,0.3c-4.9,3.7-11.8,2.7-15.5-2.1s-2.7-11.8,2.1-15.5c4.9-3.7,11.8-2.7,15.5,2.1c3,3.9,3,9.4,0,13.4
		c-0.1,0.1-0.2,0.3-0.3,0.4c-0.2,0.2-0.3,0.4-0.5,0.6C-397.2,289.2-397.3,289.3-397.4,289.5L-397.4,289.5z M-388.1,299.5
		c-0.3,0-0.6-0.1-0.8-0.3l-7.7-7.7c0.3-0.2,0.5-0.5,0.8-0.7l0,0c0.3-0.3,0.5-0.5,0.7-0.8l7.7,7.7c0.4,0.4,0.4,1.1,0,1.6
		C-387.5,299.4-387.8,299.5-388.1,299.5z"/>
	<path class="st0" d="M-405,272.5c-5,0-9,4-9,9c0,5,4,9,9,9c5,0,9-4,9-9C-396,276.5-400,272.5-405,272.5z M-405,288.5
		c-3.9,0-7-3.1-7-7s3.1-7,7-7s7,3.1,7,7C-398,285.4-401.1,288.5-405,288.5z"/>
	<path class="st0" d="M-410,281.5h2c0-1.7,1.3-3,3-3v-2C-407.8,276.5-410,278.7-410,281.5z"/>
	<rect x="-441" y="260.5" class="st0" width="2" height="2"/>
	<rect x="-441" y="264.5" class="st0" width="2" height="6"/>
</g>
</svg>
