<?xml version="1.0" encoding="utf-8"?>
<!-- Generator: Adobe Illustrator 19.0.0, SVG Export Plug-In . SVG Version: 6.00 Build 0)  -->
<svg version="1.1" id="Layer_1" xmlns="http://www.w3.org/2000/svg" xmlns:xlink="http://www.w3.org/1999/xlink" x="0px" y="0px"
	 viewBox="-467 461 64 62" style="enable-background:new -467 461 64 62;" xml:space="preserve">
<style type="text/css">
	.st0{fill:#212529;}
</style>
<g>
	<path class="st0" d="M-406,504h-3v-3c0-0.6-0.4-1-1-1h-6c-0.6,0-1,0.4-1,1v3h-6v-2c0-3.9-3.1-7-7-7h-10c-3.9,0-7,3.1-7,7v2h-6v-3
		c0-0.6-0.4-1-1-1h-6c-0.6,0-1,0.4-1,1v3h-3c-0.6,0-1,0.4-1,1v18h2v-17h56v17h2v-18C-405,504.4-405.4,504-406,504z M-459,504v-2h4v2
		H-459z M-429,504h-12v-2c0-0.6,0.4-1,1-1h10c0.6,0,1,0.4,1,1V504z M-427,504v-2c0-1.7-1.3-3-3-3h-10c-1.7,0-3,1.3-3,3v2h-2v-2
		c0-2.8,2.2-5,5-5h10c2.8,0,5,2.2,5,5v2H-427z M-415,504v-2h4v2H-415z"/>
	<path class="st0" d="M-405.4,463.2c-0.3-0.2-0.6-0.2-0.9-0.1l-9.8,3.9h-6.6l-9.8-3.9c-0.3-0.1-0.6-0.1-0.9,0.1l-2,1.3l-4.1-1.4
		c-0.2-0.1-0.4-0.1-0.6,0l-13.7,3.9l-9.7-3.9c-0.5-0.2-1.1,0-1.3,0.6c0,0.1-0.1,0.2-0.1,0.4v18c0,0.5,0.3,0.9,0.8,1l5,1
		c0.1,0,0.1,0,0.2,0c0.4,0,0.8-0.3,0.9-0.7l0.7-2l6.6,2.4c0.6,1,1.6,1.6,2.8,1.6c0.3,0,0.7-0.1,1-0.2c0.6,1.6,2.3,2.5,4,2
		c0.6,1.6,2.3,2.5,4,2c0.6,1.7,2.4,2.6,4.1,2c0.5-0.2,0.9-0.4,1.3-0.8l1.3,0.6c1.6,0.8,3.5,0.2,4.3-1.4c0.2-0.4,0.3-0.9,0.3-1.3
		c1.7,0.4,3.5-0.6,3.9-2.4c0-0.2,0.1-0.4,0.1-0.6c1.7,0.4,3.5-0.6,3.9-2.4c0-0.2,0.1-0.4,0.1-0.6c1.2,0.3,2.5-0.2,3.3-1.1h3.7
		l0.8,2.3c0.1,0.4,0.5,0.7,0.9,0.7c0.1,0,0.1,0,0.2,0l5-1c0.5-0.1,0.8-0.5,0.8-1v-18C-405,463.7-405.2,463.4-405.4,463.2z
		 M-459.7,481.8l-3.3-0.7v-15.7l7.8,3.1l-2.2,6.6l-1.5,4.5l0,0L-459.7,481.8z M-448.6,483.1c-0.6-0.3-0.9-1-0.6-1.7l1-2
		c0.3-0.6,1-0.9,1.7-0.6c0,0,0,0,0,0c0.6,0.3,0.9,1,0.6,1.7l-1,2C-447.2,483.2-447.9,483.4-448.6,483.1z M-444.6,485.1
		c-0.6-0.3-0.9-1-0.6-1.7l1-2c0.3-0.6,1-0.9,1.7-0.6c0,0,0,0,0,0c0.6,0.3,0.9,1,0.6,1.7l-1,2C-443.2,485.2-443.9,485.4-444.6,485.1z
		 M-440.6,487.1c-0.6-0.3-0.9-1-0.6-1.7l1-2c0.3-0.6,1-0.9,1.7-0.6c0,0,0,0,0,0c0.6,0.3,0.9,1,0.6,1.7l-1,2
		C-439.2,487.2-439.9,487.4-440.6,487.1z M-436.6,489.1c-0.6-0.3-0.9-1-0.6-1.7l1-2c0.3-0.6,1-0.9,1.7-0.6c0,0,0,0,0,0
		c0.6,0.3,0.9,1,0.6,1.7l-1,2C-435.2,489.2-435.9,489.4-436.6,489.1z M-429.9,488.6c-0.3,0.6-1,0.9-1.7,0.6l-1.1-0.6l0.6-1.1
		c0.2-0.4,0.3-0.8,0.3-1.2l1.3,0.7C-429.8,487.2-429.6,487.9-429.9,488.6L-429.9,488.6z M-418.6,480.2c-0.3,0.1-0.7,0.1-0.9-0.1
		l-10-5c-0.5-0.2-1.1,0-1.3,0.4c-0.2,0.5,0,1.1,0.4,1.3l8,4c0.6,0.3,0.8,1.1,0.5,1.7c-0.3,0.6-1,0.8-1.6,0.5l-10-5
		c-0.5-0.2-1.1,0-1.3,0.4c-0.2,0.5,0,1.1,0.4,1.3l8,4c0.6,0.3,0.8,1.1,0.5,1.7c-0.3,0.6-1,0.8-1.6,0.5l-10-5
		c-0.7-0.4-1.6-0.4-2.4-0.2c-0.6-1.6-2.3-2.5-4-2c-0.6-1.7-2.4-2.6-4.1-2c-0.8,0.3-1.4,0.9-1.8,1.6l-1,2c-0.1,0.3-0.2,0.5-0.3,0.8
		l-5.6-2l3.5-10.6l13.2-3.8l2.3,0.8l-2,1.2c-1.4,0.9-1.9,2.8-1,4.2c0.7,1.2,2.1,1.7,3.4,1.3l5.2-1.5l13.7,6.8
		c0.1,0.1,0.3,0.2,0.4,0.3c0.1,0.1,0.1,0.2,0.2,0.3c0,0.1,0.1,0.1,0.1,0.2c0,0.1,0,0.2,0,0.4c0,0.2-0.1,0.3-0.1,0.5
		C-418,479.8-418.3,480.1-418.6,480.2z M-415.8,479c0-0.1,0-0.2,0-0.3c0,0,0-0.1,0-0.1c0-0.2-0.1-0.4-0.1-0.6
		c-0.1-0.4-0.3-0.7-0.6-1c0,0,0,0,0-0.1c-0.1-0.1-0.2-0.2-0.4-0.4c0,0-0.1-0.1-0.1-0.1c-0.2-0.1-0.4-0.3-0.6-0.3l-14-7
		c-0.2-0.1-0.5-0.1-0.7-0.1l-5.6,1.6c-0.6,0.2-1.1-0.2-1.3-0.7c-0.1-0.5,0.1-0.9,0.5-1.2l5.8-3.6l9.5,3.8c0.1,0,0.2,0.1,0.4,0.1h6.3
		l3.3,10H-415.8z M-407,481.2l-3.3,0.7l-0.7-2.2l0,0l-1.5-4.5l-2.2-6.6l7.8-3.1V481.2z"/>
</g>
</svg>
